<?xml version="1.0" encoding="UTF-8"?>
<svg xmlns="http://www.w3.org/2000/svg" xmlns:xlink="http://www.w3.org/1999/xlink" width="194pt" height="51pt" viewBox="0 0 194 51" version="1.1">
<g id="surface1">
<path shape-rendering="crispEdges" style=" stroke:none;fill-rule:nonzero;fill:rgb(0%,68.235294%,89.019608%);fill-opacity:1;" d="M 181.390625 33.976562 C 176.058594 33.976562 171.789062 29.757812 171.789062 24.414062 C 171.789062 19.066406 176.058594 14.847656 181.390625 14.847656 C 186.667969 14.847656 190.9375 19.066406 190.9375 24.414062 C 190.9375 29.757812 186.667969 33.976562 181.390625 33.976562 M 190.9375 0.171875 L 190.9375 16.570312 C 188.683594 13.835938 185.246094 12.054688 181.390625 12.054688 C 174.574219 12.054688 169.0625 17.578125 169.0625 24.414062 C 169.0625 31.246094 174.574219 36.769531 181.390625 36.769531 C 185.246094 36.769531 188.683594 34.988281 190.9375 32.253906 L 190.9375 36.292969 L 193.722656 36.292969 L 193.722656 0.171875 Z M 190.9375 0.171875 "/>
<path shape-rendering="crispEdges" style=" stroke:none;fill-rule:nonzero;fill:rgb(0%,68.235294%,89.019608%);fill-opacity:1;" d="M 106.25 24.449219 C 106.25 19.101562 101.984375 14.882812 96.707031 14.882812 C 91.371094 14.882812 87.101562 19.101562 87.101562 24.449219 C 87.101562 29.738281 91.371094 34.015625 96.707031 34.015625 C 101.984375 34.015625 106.25 29.738281 106.25 24.449219 M 109.039062 12.566406 L 109.039062 38.351562 C 109.039062 45.183594 103.523438 50.710938 96.707031 50.710938 C 91.609375 50.710938 87.222656 47.621094 85.324219 43.105469 L 87.875 41.917969 C 89.296875 45.480469 92.734375 47.917969 96.707031 47.917969 C 101.984375 47.917969 106.25 43.640625 106.25 38.351562 L 106.25 32.292969 C 104 35.023438 100.558594 36.808594 96.707031 36.808594 C 89.890625 36.808594 84.375 31.28125 84.375 24.449219 C 84.375 17.558594 89.890625 12.089844 96.707031 12.089844 C 100.558594 12.089844 104 13.8125 106.25 16.605469 L 106.25 12.566406 Z M 109.039062 12.566406 "/>
<path shape-rendering="crispEdges" style=" stroke:none;fill-rule:nonzero;fill:rgb(18.431373%,18.431373%,18.823529%);fill-opacity:1;" d="M 3.011719 2.476562 L 0.164062 2.476562 L 0.164062 38.597656 L 16.585938 38.597656 L 16.585938 35.746094 L 3.011719 35.746094 Z M 3.011719 2.476562 "/>
<path shape-rendering="crispEdges" style=" stroke:none;fill-rule:nonzero;fill:rgb(18.431373%,18.431373%,18.823529%);fill-opacity:1;" d="M 31.644531 36.28125 C 26.3125 36.28125 22.042969 32.0625 22.042969 26.714844 C 22.042969 21.367188 26.3125 17.152344 31.644531 17.152344 C 36.921875 17.152344 41.191406 21.367188 41.191406 26.714844 C 41.191406 32.0625 36.921875 36.28125 31.644531 36.28125 M 41.191406 18.933594 C 38.9375 16.140625 35.5 14.359375 31.644531 14.359375 C 24.828125 14.359375 19.316406 19.882812 19.316406 26.714844 C 19.316406 33.546875 24.828125 39.074219 31.644531 39.074219 C 35.527344 39.074219 38.996094 37.257812 41.191406 34.390625 L 41.191406 39.074219 L 43.976562 39.074219 L 43.976562 14.832031 L 41.191406 14.832031 Z M 41.191406 18.933594 "/>
<path shape-rendering="crispEdges" style=" stroke:none;fill-rule:nonzero;fill:rgb(18.431373%,18.431373%,18.823529%);fill-opacity:1;" d="M 77.910156 14.832031 L 71.035156 35.332031 L 66.570312 25.59375 L 70.328125 18.636719 L 72.082031 14.832031 L 68.960938 14.832031 L 65.042969 22.253906 L 61.640625 14.832031 L 58.558594 14.832031 L 63.371094 25.414062 L 58.132812 35.332031 L 51.375 14.832031 L 48.292969 14.832031 L 56.472656 38.597656 L 59.554688 38.597656 L 64.882812 28.726562 L 69.375 38.597656 L 72.457031 38.597656 L 79.273438 18.636719 L 80.578125 14.832031 Z M 77.910156 14.832031 "/>
<path shape-rendering="crispEdges" style=" stroke:none;fill-rule:nonzero;fill:rgb(0%,68.235294%,89.019608%);fill-opacity:1;" d="M 155.480469 24.820312 C 155.480469 26.425781 154.179688 27.730469 152.574219 27.730469 C 150.972656 27.730469 149.671875 26.425781 149.671875 24.820312 C 149.671875 23.214844 150.972656 21.910156 152.574219 21.910156 C 154.179688 21.910156 155.480469 23.214844 155.480469 24.820312 M 152.574219 30.210938 C 155.484375 30.210938 157.851562 27.835938 157.851562 24.921875 C 157.851562 24.894531 157.84375 24.867188 157.84375 24.839844 C 157.84375 24.8125 157.851562 24.789062 157.851562 24.761719 C 157.851562 21.886719 155.519531 19.546875 152.648438 19.546875 C 151.570312 19.546875 150.550781 19.890625 149.667969 20.515625 C 149.644531 20.53125 149.621094 20.546875 149.597656 20.5625 C 149.546875 20.601562 149.488281 20.628906 149.4375 20.667969 L 132.503906 34.335938 C 130.457031 35.96875 127.765625 36.792969 125.140625 36.613281 C 124.945312 36.597656 124.746094 36.578125 124.546875 36.550781 C 119.800781 35.949219 115.988281 32.054688 115.476562 27.292969 C 115.152344 24.269531 116.082031 21.367188 118.097656 19.121094 C 120.085938 16.898438 122.910156 15.480469 125.875 15.480469 C 129.21875 15.480469 133.507812 17.152344 136.058594 21.75 L 136.152344 21.75 L 137.636719 20.484375 C 133.691406 14.625 129.195312 13.136719 124.746094 13.53125 C 118.621094 14.078125 113.699219 19.132812 113.296875 25.292969 C 113.070312 28.828125 114.273438 32.195312 116.6875 34.777344 C 119.066406 37.324219 122.425781 38.785156 125.894531 38.785156 C 127.839844 38.785156 129.707031 38.351562 131.445312 37.496094 C 132.191406 37.125 132.949219 36.628906 133.765625 35.976562 L 147.316406 25.097656 C 147.410156 27.929688 149.726562 30.210938 152.574219 30.210938 "/>
<path shape-rendering="crispEdges" style=" stroke:none;fill-rule:nonzero;fill:rgb(0%,68.235294%,89.019608%);fill-opacity:1;" d="M 142.445312 33.136719 L 142.453125 33.109375 C 142.28125 32.90625 142.101562 32.710938 141.941406 32.492188 Z M 142.445312 33.136719 "/>
<path shape-rendering="crispEdges" style=" stroke:none;fill-rule:nonzero;fill:rgb(0%,68.235294%,89.019608%);fill-opacity:1;" d="M 125.421875 29.042969 C 123.820312 29.042969 122.519531 27.738281 122.519531 26.132812 C 122.519531 24.527344 123.820312 23.222656 125.421875 23.222656 C 127.027344 23.222656 128.328125 24.527344 128.328125 26.132812 C 128.328125 27.738281 127.027344 29.042969 125.421875 29.042969 M 161.332031 16.371094 C 158.949219 13.828125 155.59375 12.367188 152.121094 12.367188 C 150.175781 12.367188 148.3125 12.800781 146.574219 13.65625 C 145.824219 14.023438 145.066406 14.519531 144.253906 15.175781 L 137.636719 20.484375 L 130.683594 26.066406 C 130.59375 23.230469 128.277344 20.945312 125.421875 20.945312 C 122.515625 20.945312 120.148438 23.320312 120.148438 26.234375 C 120.148438 26.601562 120.1875 26.960938 120.257812 27.308594 C 120.695312 29.746094 122.8125 31.601562 125.367188 31.601562 C 126.539062 31.601562 127.648438 31.214844 128.582031 30.480469 L 138.660156 22.34375 L 145.511719 16.8125 C 147.558594 15.179688 150.25 14.355469 152.875 14.539062 C 153.074219 14.554688 153.269531 14.570312 153.46875 14.597656 C 158.214844 15.199219 162.03125 19.09375 162.542969 23.859375 C 162.867188 26.878906 161.933594 29.78125 159.921875 32.03125 C 157.933594 34.25 155.035156 35.691406 152.066406 35.691406 C 148.722656 35.691406 145.730469 34.425781 143.226562 31.230469 L 142.808594 31.765625 L 142.453125 33.109375 C 144.867188 36.011719 148.363281 37.671875 152.117188 37.671875 C 152.5 37.671875 152.882812 37.652344 153.269531 37.617188 C 159.398438 37.074219 164.320312 32.015625 164.71875 25.859375 C 164.949219 22.320312 163.746094 18.953125 161.332031 16.371094 "/>
</g>
</svg>
