<?xml version="1.0" encoding="UTF-8" standalone="no"?>
<!DOCTYPE svg PUBLIC "-//W3C//DTD SVG 1.1//EN" "http://www.w3.org/Graphics/SVG/1.1/DTD/svg11.dtd">
<svg xmlns="http://www.w3.org/2000/svg" xmlns:xlink="http://www.w3.org/1999/xlink" version="1.1">
<g clip-path="url(#cp0)">
<path transform="matrix(1,0,0,-1,784.011,336.05293)" d="M 0 0 C -19.207 0 -34.573 15.152 -34.573 34.36 C -34.573 53.567 -19.207 68.72 0 68.72 C 18.994 68.72 34.36 53.567 34.36 34.36 C 34.36 15.152 18.994 0 0 0 M 34.36 121.435 L 34.36 62.532 C 26.25 72.349 13.872 78.752 0 78.752 C -24.543 78.752 -44.39 58.903 -44.39 34.36 C -44.39 9.817 -24.543 -10.03 0 -10.03 C 13.872 -10.03 26.25 -3.629 34.36 6.19 L 34.36 -8.323 L 44.392 -8.323 L 44.392 121.435 Z " fill="#00aee3"/>
<path transform="matrix(1,0,0,-1,513.5042,301.8251)" d="M 0 0 C 0 19.207 -15.366 34.358 -34.36 34.358 C -53.567 34.358 -68.933 19.207 -68.933 0 C -68.933 -18.994 -53.567 -34.362 -34.36 -34.362 C -15.366 -34.362 0 -18.994 0 0 M 10.032 42.681 L 10.032 -49.943 C 10.032 -74.486 -9.817 -94.333 -34.36 -94.333 C -52.713 -94.333 -68.507 -83.235 -75.336 -67.015 L -66.158 -62.745 C -61.036 -75.551 -48.658 -84.301 -34.36 -84.301 C -15.366 -84.301 0 -68.937 0 -49.943 L 0 -28.174 C -8.11 -37.989 -20.488 -44.394 -34.36 -44.394 C -58.903 -44.394 -78.75 -24.543 -78.75 0 C -78.75 24.756 -58.903 44.39 -34.36 44.39 C -20.488 44.39 -8.11 38.202 0 28.17 L 0 42.681 Z " fill="#00aee3"/>
<path transform="matrix(1,0,0,-1,141.8421,222.89249)" d="M 0 0 L -10.245 0 L -10.245 -129.758 L 48.871 -129.758 L 48.871 -119.513 L 0 -119.513 Z " fill="#2f2f30"/>
<path transform="matrix(1,0,0,-1,244.9264,344.3273)" d="M 0 0 C -19.207 0 -34.573 15.152 -34.573 34.36 C -34.573 53.567 -19.207 68.72 0 68.72 C 18.994 68.72 34.36 53.567 34.36 34.36 C 34.36 15.152 18.994 0 0 0 M 34.36 62.319 C 26.25 72.349 13.872 78.752 0 78.752 C -24.543 78.752 -44.39 58.903 -44.39 34.36 C -44.39 9.817 -24.543 -10.03 0 -10.03 C 13.967 -10.03 26.454 -3.513 34.36 6.792 L 34.36 -10.03 L 44.392 -10.03 L 44.392 11.526 L 44.392 34.36 L 44.392 77.043 L 34.36 77.043 Z " fill="#2f2f30"/>
<path transform="matrix(1,0,0,-1,411.4767,267.2845)" d="M 0 0 L -24.756 -73.627 L -40.818 -38.656 L -27.302 -13.659 L -20.978 0 L -32.212 0 L -46.327 -26.659 L -58.572 0 L -69.669 0 L -52.334 -38.004 L -71.196 -73.627 L -95.526 0 L -106.624 0 L -77.171 -85.366 L -66.074 -85.366 L -46.903 -49.911 L -30.731 -85.366 L -19.634 -85.366 L 4.91 -13.659 L 9.604 0 Z " fill="#2f2f30"/>
<path transform="matrix(1,0,0,-1,690.7321,303.1555)" d="M 0 0 C 0 -5.766 -4.692 -10.455 -10.461 -10.455 C -16.226 -10.455 -20.918 -5.766 -20.918 0 C -20.918 5.765 -16.226 10.455 -10.461 10.455 C -4.692 10.455 0 5.765 0 0 M -10.46 -19.361 C .013 -19.361 8.535 -10.838 8.535 -.366 C 8.535 -.268 8.508 -.177 8.506 -.079 C 8.508 .019 8.535 .11 8.535 .208 C 8.535 10.534 .135 18.934 -10.191 18.934 C -14.08 18.934 -17.753 17.703 -20.926 15.46 C -21.011 15.403 -21.096 15.348 -21.181 15.29 C -21.369 15.152 -21.575 15.052 -21.76 14.906 L -82.713 -34.189 C -90.086 -40.054 -99.771 -43.007 -109.23 -42.359 C -109.936 -42.308 -110.645 -42.24 -111.359 -42.146 C -128.443 -39.982 -142.178 -25.993 -144.022 -8.882 C -145.189 1.973 -141.836 12.4 -134.582 20.476 C -127.421 28.451 -117.262 33.547 -106.581 33.547 C -94.551 33.547 -79.103 27.539 -69.917 11.02 L -69.577 11.02 L -64.239 15.568 C -78.443 36.625 -94.634 41.966 -110.643 40.549 C -132.702 38.586 -150.421 20.423 -151.859 -1.699 C -152.683 -14.401 -148.352 -26.501 -139.663 -35.771 C -131.089 -44.919 -119.004 -50.166 -106.507 -50.166 C -99.512 -50.166 -92.792 -48.606 -86.534 -45.532 C -83.843 -44.207 -81.111 -42.422 -78.179 -40.077 L -29.39 -.994 C -29.05 -11.17 -20.719 -19.361 -10.46 -19.361 " fill="#00aee3"/>
<path transform="matrix(1,0,0,-1,643.8097,333.0298)" d="M 0 0 L .024 .092 C -.592 .83 -1.241 1.53 -1.816 2.314 Z " fill="#00aee3"/>
<path transform="matrix(1,0,0,-1,582.525,318.3275)" d="M 0 0 C -5.766 0 -10.458 4.69 -10.458 10.455 C -10.458 16.221 -5.766 20.911 0 20.911 C 5.768 20.911 10.461 16.221 10.461 10.455 C 10.461 4.69 5.768 0 0 0 M 129.267 45.514 C 120.693 54.661 108.608 59.908 96.111 59.908 C 89.113 59.908 82.394 58.349 76.138 55.275 C 73.444 53.947 70.713 52.165 67.785 49.82 L 43.968 30.74 L 18.935 10.687 C 18.61 20.877 10.269 29.084 0 29.084 C -10.473 29.084 -18.993 20.56 -18.993 10.089 C -18.993 8.767 -18.853 7.477 -18.595 6.231 C -17.026 -2.519 -9.398 -9.192 -.203 -9.192 C 4.018 -9.192 8.016 -7.8 11.364 -5.162 L 47.653 24.068 L 72.316 43.933 C 79.688 49.8 89.368 52.764 98.832 52.103 C 99.539 52.05 100.251 51.982 100.963 51.891 C 118.049 49.726 131.784 35.736 133.626 18.624 C 134.794 7.771 131.442 -2.655 124.19 -10.732 C 117.029 -18.706 106.596 -23.881 95.913 -23.881 C 83.883 -23.881 73.106 -19.34 64.096 -7.862 L 62.581 -9.784 L 61.309 -14.611 C 70.002 -25.029 82.587 -30.991 96.1 -30.991 C 97.474 -30.991 98.86 -30.93 100.247 -30.806 C 122.306 -28.844 140.024 -10.681 141.463 11.442 C 142.287 24.143 137.955 36.243 129.267 45.514 " fill="#00aee3"/>
</g>
</svg>
